<?xml version="1.0" encoding="UTF-8"?>
<svg version="1.1" xmlns="http://www.w3.org/2000/svg" width="123" height="71">
<path d="M0 0 C40.59 0 81.18 0 123 0 C123 23.43 123 46.86 123 71 C82.41 71 41.82 71 0 71 C0 47.57 0 24.14 0 0 Z " fill="#111829" transform="translate(0,0)"/>
<path d="M0 0 C1.40892517 -0.00574036 1.40892517 -0.00574036 2.84631348 -0.01159668 C4.83000766 -0.01431576 6.8137377 -0.00695484 8.79736328 0.00976562 C11.83317016 0.03117539 14.86661046 0.00996393 17.90234375 -0.015625 C19.83073439 -0.01298172 21.75912356 -0.00785675 23.6875 0 C24.59487915 -0.00809692 25.5022583 -0.01619385 26.43713379 -0.02453613 C30.2710869 0.03249126 32.63341638 0.07946487 35.9140625 2.16601562 C37.77222526 5.24010729 37.86064226 7.32091617 37.875 10.90625 C37.88273437 12.75476563 37.88273437 12.75476563 37.890625 14.640625 C37.87515625 15.92453125 37.8596875 17.2084375 37.84375 18.53125 C37.85921875 19.81515625 37.8746875 21.0990625 37.890625 22.421875 C37.88546875 23.65421875 37.8803125 24.8865625 37.875 26.15625 C37.87048828 27.28289063 37.86597656 28.40953125 37.86132812 29.5703125 C37.34375 32.53125 37.34375 32.53125 35.9140625 34.89648438 C31.97134659 37.4041236 28.26994529 37.10339108 23.6875 37.0625 C22.74821655 37.0663269 21.80893311 37.07015381 20.84118652 37.07409668 C18.85749234 37.07681576 16.8737623 37.06945484 14.89013672 37.05273438 C11.85432984 37.03132461 8.82088954 37.05253607 5.78515625 37.078125 C3.85676561 37.07548172 1.92837644 37.07035675 0 37.0625 C-1.36106873 37.07464539 -1.36106873 37.07464539 -2.74963379 37.08703613 C-6.5835869 37.03000874 -8.94591638 36.98303513 -12.2265625 34.89648438 C-14.08472526 31.82239271 -14.17314226 29.74158383 -14.1875 26.15625 C-14.19265625 24.92390625 -14.1978125 23.6915625 -14.203125 22.421875 C-14.18765625 21.13796875 -14.1721875 19.8540625 -14.15625 18.53125 C-14.17171875 17.24734375 -14.1871875 15.9634375 -14.203125 14.640625 C-14.19796875 13.40828125 -14.1928125 12.1759375 -14.1875 10.90625 C-14.18298828 9.77960937 -14.17847656 8.65296875 -14.17382812 7.4921875 C-13.65625 4.53125 -13.65625 4.53125 -12.2265625 2.16601562 C-8.28384659 -0.3416236 -4.58244529 -0.04089108 0 0 Z " fill="#FD6700" transform="translate(78.65625,17.46875)"/>
<path d="M0 0 C2.9375 1.5 2.9375 1.5 5 4 C5.43479678 6.72026701 5.24012986 9.26785585 5 12 C4.7018576 15.7763932 4.7018576 15.7763932 6 18 C0.65812813 18.41091322 -4.19492996 17.33526404 -9 15 C-11.45945333 11.31082001 -11.6807995 8.28300443 -11 4 C-8.1553332 -0.55146687 -5.11689336 -0.71816047 0 0 Z " fill="#EEEFEB" transform="translate(20,28)"/>
<path d="M0 0 C1.32 0 2.64 0 4 0 C4.33 2.64 4.66 5.28 5 8 C5.66 8 6.32 8 7 8 C7.33 5.36 7.66 2.72 8 0 C9.32 0 10.64 0 12 0 C12 3.96 12 7.92 12 12 C10.39125 12.04125 8.7825 12.0825 7.125 12.125 C6.22007813 12.14820313 5.31515625 12.17140625 4.3828125 12.1953125 C2 12 2 12 0 10 C-0.1953125 7.6171875 -0.1953125 7.6171875 -0.125 4.875 C-0.10695313 3.96492188 -0.08890625 3.05484375 -0.0703125 2.1171875 C-0.04710938 1.41851562 -0.02390625 0.71984375 0 0 Z " fill="#E8F2F3" transform="translate(26,32)"/>
<path d="M0 0 C3.3 0 6.6 0 10 0 C9.07377893 3.70488428 8.32789515 5.16604069 6 8 C7.32 8.33 8.64 8.66 10 9 C10 9.99 10 10.98 10 12 C6.37 12 2.74 12 -1 12 C-0.07377893 8.29511572 0.67210485 6.83395931 3 4 C2.01 3.67 1.02 3.34 0 3 C0 2.01 0 1.02 0 0 Z " fill="#E6EEEE" transform="translate(46,32)"/>
<path d="M0 0 C0.99 0 1.98 0 3 0 C3.33 1.65 3.66 3.3 4 5 C5.65 5.33 7.3 5.66 9 6 C9.125 8.875 9.125 8.875 9 12 C8.34 12.66 7.68 13.32 7 14 C4.69 14 2.38 14 0 14 C0 9.38 0 4.76 0 0 Z " fill="#090B00" transform="translate(97,29)"/>
<path d="M0 0 C0.99 0 1.98 0 3 0 C3.33 1.65 3.66 3.3 4 5 C5.65 5.33 7.3 5.66 9 6 C9 8.64 9 11.28 9 14 C8.01 14 7.02 14 6 14 C6 11.69 6 9.38 6 7 C5.01 7.495 5.01 7.495 4 8 C3.34227572 11.02934491 3.34227572 11.02934491 3 14 C2.01 14 1.02 14 0 14 C0 9.38 0 4.76 0 0 Z " fill="#170900" transform="translate(75,29)"/>
<path d="M0 0 C2.93453261 0.36681658 3.86437246 0.86437246 6 3 C5.625 6.125 5.625 6.125 5 9 C2.625 9.625 2.625 9.625 0 10 C-2 8 -2 8 -2.25 5 C-2 2 -2 2 0 0 Z " fill="#202739" transform="translate(15,31)"/>
<path d="M0 0 C0.99 0 1.98 0 3 0 C3 2.31 3 4.62 3 7 C3.99 7 4.98 7 6 7 C6 4.69 6 2.38 6 0 C6.99 0 7.98 0 9 0 C9 2.97 9 5.94 9 9 C6.36 9 3.72 9 1 9 C-0.4783226 6.04335481 -0.06032783 3.25770263 0 0 Z " fill="#0C0A00" transform="translate(86,34)"/>
<path d="M0 0 C1.32 0 2.64 0 4 0 C4 3.96 4 7.92 4 12 C2.68 11.67 1.36 11.34 0 11 C-1.35015859 6.94952424 -0.62084998 4.2079832 0 0 Z " fill="#F7F0E2" transform="translate(34,32)"/>
<path d="M0 0 C1.32 0 2.64 0 4 0 C4 3.96 4 7.92 4 12 C2.68 12 1.36 12 0 12 C0 8.04 0 4.08 0 0 Z " fill="#E7F2F1" transform="translate(40,32)"/>
<path d="M0 0 C0.66 0 1.32 0 2 0 C2 0.66 2 1.32 2 2 C3.32 2.33 4.64 2.66 6 3 C6 3.99 6 4.98 6 6 C2.37 6 -1.26 6 -5 6 C-3.38405168 3.95880212 -1.7143618 1.95927063 0 0 Z " fill="#FBF7F0" transform="translate(50,38)"/>
<path d="M0 0 C2.125 0.375 2.125 0.375 4 1 C4 2.32 4 3.64 4 5 C1 7 1 7 -2 7 C-2.125 4.625 -2.125 4.625 -2 2 C-1.34 1.34 -0.68 0.68 0 0 Z " fill="#7F3300" transform="translate(102,34)"/>
<path d="M0 0 C0.33 0.99 0.66 1.98 1 3 C3.01508358 3.73323796 3.01508358 3.73323796 5 4 C3.35 5.65 1.7 7.3 0 9 C0 6.03 0 3.06 0 0 Z " fill="#102947" transform="translate(45,32)"/>
</svg>
